<?xml version="1.0" encoding="UTF-8"?>
<svg width="1300" height="500" version="1.1" viewBox="0 0 343.96 132.29" xmlns="http://www.w3.org/2000/svg" xmlns:cc="http://creativecommons.org/ns#" xmlns:dc="http://purl.org/dc/elements/1.1/" xmlns:rdf="http://www.w3.org/1999/02/22-rdf-syntax-ns#" xmlns:xlink="http://www.w3.org/1999/xlink">
 <circle transform="rotate(.56989)" cx="20.102" cy="56.723" r="4.1689" fill="#fff" stroke="#000" stroke-width=".41689"/>
 <g transform="rotate(.56989 204.39 303.83)" stroke-width=".13612" aria-label="11">
  <path d="m16.737 60.398h-2.1428v-0.40411h0.82417v-2.6533h-0.82417v-0.36157q0.16749 0 0.35891-0.02659 0.19142-0.02925 0.28979-0.08242 0.1223-0.06647 0.19142-0.16749 0.07178-0.10369 0.08242-0.2765h0.41208v3.5679h0.80822z"/>
  <path d="m20.199 60.398h-2.1428v-0.40411h0.82417v-2.6533h-0.82417v-0.36157q0.16749 0 0.35891-0.02659 0.19142-0.02925 0.28979-0.08242 0.1223-0.06647 0.19142-0.16749 0.07178-0.10369 0.08242-0.2765h0.41208v3.5679h0.80822z"/>
 </g>
 <defs>
  <pattern id="pattern4264-8" patternTransform="matrix(-.77603 .00097936 -.00097936 -.77603 -1599.8 380.49)" xlink:href="#pattern4256-2"/>
  <pattern id="pattern4256-2" width="10.793857" height="10.773841" patternTransform="matrix(-.56302 -.53407 .53407 -.56302 1593.7 910.57)" patternUnits="userSpaceOnUse">
   <g transform="matrix(.58789 .0060987 -.0060987 .58789 -595.38 -720.71)">
    <rect x="1025.5" y="1215.3" width="18.173" height="18.096"/>
    <rect x="1025.5" y="1215.3" width="9.0747" height="9.0747" fill="#fff"/>
    <rect x="1034.6" y="1224.3" width="9.0747" height="9.0747" fill="#fff"/>
   </g>
  </pattern>
  <clipPath id="clipPath3490-7">
   <rect transform="matrix(-.71834 .69569 -.69569 -.71834 0 0)" x="683.14" y="104.1" width="1511.8" height="1003.7" fill="#006a00"/>
  </clipPath>
  <clipPath id="clipPath3494-9">
   <rect transform="matrix(-.9473 -.32036 .9519 -.3064 0 0)" x="-4232.8" y="-2372.1" width="2168.2" height="1468.4" fill="#006a00"/>
  </clipPath>
  <clipPath id="clipPath3494-9-5">
   <rect transform="matrix(-.9473 -.32036 .9519 -.3064 0 0)" x="-4232.8" y="-2372.1" width="2168.2" height="1468.4" fill="#006a00"/>
  </clipPath>
  <clipPath id="clipPath3494-9-5-2">
   <rect transform="matrix(-.9473 -.32036 .9519 -.3064 0 0)" x="-4232.8" y="-2372.1" width="2168.2" height="1468.4" fill="#006a00"/>
  </clipPath>
 </defs>
 <metadata>
  <rdf:RDF>
   <cc:Work rdf:about="">
    <dc:format>image/svg+xml</dc:format>
    <dc:type rdf:resource="http://purl.org/dc/dcmitype/StillImage"/>
    <dc:title/>
   </cc:Work>
  </rdf:RDF>
 </metadata>
 <g transform="rotate(.56989 204.39 303.83)" stroke="#000">
  <path d="m202.85 109.17c-7.7572-4.0597-23.271-12.179-35.835-18.769s-22.175-11.652-27.235-14.336c-5.0601-2.6832-5.5681-2.9876-6.0849-3.3556-0.51681-0.36807-1.0424-0.79972-1.5148-1.2734s-0.89174-0.98936-1.1974-1.4396-0.4979-0.83508-0.65991-1.4106c-0.16201-0.57551-0.29394-1.3417-0.29385-1.9881 9e-5 -0.64642 0.13211-1.1732 0.35927-1.6888s0.54947-1.0201 1.0354-1.564c0.48593-0.54397 1.1355-1.1275 2.0389-1.8416 0.90339-0.71413 2.0606-1.5589 3.1568-2.3612 1.0962-0.80238 2.1314-1.5623 2.8589-2.1654 0.72751-0.6031 1.1473-1.0493 1.5411-1.5415 0.39389-0.49225 0.76185-1.0305 1.102-1.6542s0.65253-1.3327 0.88565-2.2113c0.23313-0.87864 0.38704-1.9268 0.37298-4.1573-0.0141-2.2305-0.19606-5.6432-0.23983-7.675-0.0438-2.0319 0.0507-2.6829 0.26961-3.5293 0.21895-0.84633 0.56239-1.8879 0.96626-2.8221s0.86816-1.7609 1.3173-2.4135c0.4491-0.65256 0.88305-1.1309 1.3717-1.6199 0.48862-0.48894 1.0319-0.98843 1.713-1.5735 0.68105-0.58505 1.4998-1.2556 2.4924-1.9189s2.1589-1.3193 3.2737-1.9018 2.1779-1.0916 3.459-1.6586c1.2811-0.56698 2.7801-1.1919 4.2762-1.7141 1.4961-0.52227 2.9894-0.94189 4.3617-1.2532 1.3724-0.31126 2.6239-0.51414 5.0422-0.71868s6.0032-0.41072 8.4366-0.46621 3.7152 0.03974 4.8817 0.19576 2.2177 0.37285 3.5204 0.7351 2.8569 0.86994 4.6092 1.5411c1.7522 0.67114 3.7025 1.5057 11.849 5.6321 8.1467 4.1264 22.489 11.544 30.275 15.541 7.786 3.9966 9.0151 4.5717 10.04 5.0206 1.0245 0.44891 1.8444 0.77162 2.8504 1.0301 1.006 0.25851 2.198 0.45272 3.1896 0.57787s1.7827 0.18122 2.6479 0.1391c0.86521-0.04212 1.8044-0.18247 2.6642-0.33473s1.6402-0.31641 2.6159-0.67929c0.97575-0.36288 2.1467-0.92449 3.3442-1.5899 1.1975-0.6654 2.4214-1.4346 3.7352-2.3027 1.3138-0.86816 2.7172-1.8353 3.9897-2.7408 1.2725-0.90557 2.414-1.7495 3.3777-2.3562 0.96378-0.6067 1.7499-0.97612 2.6567-1.2962s1.9342-0.59091 3.4165-0.74987 3.4194-0.20602 4.8652-0.14246 2.4004 0.2378 3.4027 0.58312 2.0523 0.86179 3.2248 1.6246c1.1725 0.76278 2.4672 1.7719 3.8394 2.9113s2.8215 2.409 4.0035 3.3685c1.182 0.95945 2.0966 1.6087 3.2393 2.2468s2.5135 1.2651 3.7496 1.7174c1.2362 0.45227 2.3376 0.72972 3.4004 0.85933 1.0628 0.1296 2.0868 0.11127 3.2725 0.01411 1.1858-0.09716 2.5332-0.27318 3.8895-0.59152 1.3563-0.31835 2.7214-0.77903 4.1516-1.3612 1.4302-0.58212 2.9254-1.2857 4.2483-1.965 1.323-0.6794 2.4736-1.3346 3.5788-2.1138 1.1052-0.77917 2.165-1.6822 3.1304-2.5807 0.96538-0.8985 1.8363-1.7924 2.5656-2.845 0.72926-1.0526 1.3167-2.2638 1.7455-3.3333 0.42882-1.0695 0.69898-1.9971 0.89143-2.7397s0.3072-1.3 0.28499-2.4028c-0.0222-1.1027-0.18132-2.7505-0.34549-3.8542-0.16418-1.1036-0.33333-1.663-0.72854-2.3297-0.39521-0.66664-1.0163-1.4405-1.7595-2.1296-0.74316-0.68908-1.6083-1.2934-2.4583-1.7486-0.85-0.45523-1.6848-0.76144-2.5611-0.94734-0.87628-0.1859-1.794-0.25156-2.7622-0.22014-0.96817 0.03142-1.9868 0.15988-3.0236 0.39962s-2.0919 0.59072-3.4667 0.85477-3.069 0.44119-4.8492 0.4727-3.6464-0.08256-5.5002-0.2682c-1.8539-0.18564-3.6954-0.44281-6.5044-0.97612s-6.5853-1.3427-9.3801-1.9082c-2.7948-0.56551-4.6079-0.88714-7.111-1.1278-2.503-0.2407-5.6958-0.40052-7.7335-0.47469-2.0376-0.07417-2.9201-0.06272-11.593 0.56479-8.6734 0.62751-25.137 1.871-34.866 2.5184-9.7287 0.64737-12.722 0.69858-15.113 0.65736-2.3908-0.04122-4.1791-0.17486-5.852-0.36931-1.673-0.19446-3.2306-0.44969-4.8723-0.81123s-3.3674-0.82934-5.3001-1.4999c-1.9327-0.67061-4.0723-1.544-6.2097-2.3701s-4.2724-1.6051-6.3017-2.3183c-2.0294-0.71318-3.953-1.3605-5.6027-1.8872-1.6498-0.52669-3.0255-0.93269-4.8441-1.3644-1.8186-0.43173-4.0798-0.88921-6.0346-1.2039-1.9548-0.31472-3.603-0.48671-5.6126-0.6332s-4.3806-0.2675-7.7193-0.18368c-3.3387 0.083822-7.6449 0.37244-10.628 0.62815-2.9834 0.25572-4.6439 0.47851-6.9114 0.86492s-5.1419 0.93639-8.2769 1.641c-3.135 0.7046-6.5304 1.5638-9.6397 2.4721-3.1093 0.90833-5.9323 1.8658-10.242 3.5343s-10.107 4.0479-16.489 6.724c-6.3818 2.6761-13.348 5.6486-18.007 7.6096-4.6589 1.961-7.0101 2.9105-10.08 4.3248-3.0699 1.4144-6.8582 3.2936-11.664 5.8022-4.8059 2.5086-10.629 5.6465-15.513 8.3819s-8.8287 5.0682-11.142 6.5634c-2.3131 1.4952-2.9946 2.1528-3.5176 2.7468-0.52294 0.59407-0.88732 1.1247-1.0952 1.6643-0.20785 0.53964-0.25915 1.0885-0.19008 1.5923 0.06907 0.50388 0.25867 0.96292 0.73808 1.5361s1.2487 1.2604 2.6142 2.1695 3.3271 2.04 4.6211 2.7407c1.294 0.70072 1.9204 0.97124 2.6654 1.3865 0.74496 0.41524 1.6084 0.97524 2.3714 1.646 0.763 0.67079 1.4254 1.4524 1.9189 2.1977 0.49349 0.74527 0.8179 1.4542 1.0474 2.2736 0.22951 0.81948 0.36401 1.7495 0.34283 2.6871-0.02119 0.93764-0.19813 1.8828-0.49159 2.8393-0.29346 0.95647-0.70345 1.9241-1.219 2.7855s-1.1366 1.6163-1.9313 2.2404c-0.79474 0.6241-1.763 1.1172-4.5711 1.4815-2.8082 0.36425-7.4559 0.59964-10.09 0.82707-2.6339 0.22743-3.2539 0.44684-4.0078 0.83046s-1.6417 0.93143-2.4486 1.5226c-0.80687 0.59117-1.5328 1.2257-2.7825 3.0841s-3.0232 4.9406-3.9388 6.6171c-0.91563 1.6765-0.97339 1.9474-0.93454 2.2608 0.038848 0.31338 0.17445 0.66943 0.45806 0.99073 0.28361 0.32131 0.71539 0.60773 1.1642 0.8382s0.91453 0.40487 1.3154 0.6218c0.40084 0.21694 0.73671 0.4765 1.0015 0.73163 0.26476 0.25513 0.45829 0.50586 0.58171 0.93348 0.12341 0.42762 0.17649 1.0321 0.16322 1.7305s-0.09293 1.4906-0.39938 2.9681c-0.30645 1.4774-0.83968 3.6399-1.246 5.3236s-0.6857 2.8884-0.85664 3.9941c-0.17094 1.1056-0.2334 2.1121-0.23158 2.7266 0.0018 0.61445 0.06804 0.8369 0.22568 1.1589 0.15765 0.32197 0.40681 0.74343 0.71462 1.0754 0.30781 0.33195 0.67439 0.57427 1.1587 0.7242 0.48428 0.14994 1.0862 0.20733 48.653-0.23343 47.566-0.44077 142.09-1.3797 189.43-1.8586s47.489-0.49796 47.727-0.59343c0.23799-0.0955 0.56409-0.26745 0.87246-0.46087 0.30837-0.19343 0.59893-0.40827 0.90313-0.80223s0.62191-0.9669 0.8094-1.4667 0.24476-0.92624 0.21504-1.421c-0.0297-0.49476-0.14633-1.0577-0.35567-1.5771-0.20934-0.51941-0.51125-0.99527-1.0389-1.527-0.52769-0.53173-1.281-1.1194-3.6468-2.6487s-6.3438-4.0002-8.8786-5.4543c-2.5349-1.4541-3.6265-1.8915-4.8807-2.2318-1.2542-0.34024-2.6708-0.58341-4.0826-0.72645-1.4118-0.14305-2.8187-0.186-4.451-0.0507-1.6324 0.1353-3.4902 0.44879-5.2943 0.94922s-3.5545 1.1878-4.9574 1.9139c-1.4029 0.72616-2.4582 1.4911-3.6878 2.3426s-2.6333 1.7895-4.3396 2.6977c-1.7063 0.90819-3.7149 1.7865-5.9489 2.62-2.2339 0.83354-4.6929 1.6223-6.7963 2.1596-2.1034 0.53728-3.8511 0.8231-5.9941 1.0055-2.143 0.18242-4.6812 0.26147-6.8344 0.23255-2.1533-0.0289-3.9215-0.16576-5.8331-0.49635-1.9115-0.33059-3.9662-0.85486-5.9146-1.4847-1.9484-0.62983-3.7904-1.3651-5.2377-2.0082-1.4473-0.64308-2.4999-1.1939-3.026-1.4692-0.52612-0.27531-0.52612-0.27542-8.2834-4.3351z" fill="none" stroke-width="2.6458"/>
  <path d="m263.15 108.4c-2.3567 0.60543-4.7132 1.2108-7.1842 1.7548s-5.0564 1.0268-7.7802 1.4159c-2.7238 0.38912-5.586 0.68464-8.0181 0.88116-2.4322 0.19652-4.4343 0.29405-6.5748 0.29796-2.1405 4e-3 -4.4194-0.0858-6.8187-0.35913-2.3993-0.27338-4.919-0.73039-6.8259-1.195s-3.2009-0.93674-5.6631-2.0433c-2.4622-1.1065-6.0925-2.8473-13.673-6.7038-7.58-3.8564-19.109-9.8282-29.175-15.046-10.066-5.2182-18.667-9.6825-23.259-12.157-4.5915-2.4745-5.1725-2.9591-5.7807-3.5427s-1.2435-1.2662-1.7363-2.0004c-0.49283-0.73418-0.84329-1.5199-1.0979-2.3994-0.25464-0.87954-0.41355-1.8529-0.34399-2.7148 0.0695-0.86182 0.36748-1.6122 0.68982-2.3191 0.32235-0.70696 0.66909-1.3705 1.0761-2.1708 0.40699-0.8003 0.87421-1.7373 1.2695-2.5482 0.39533-0.81088 0.71875-1.4956 0.90951-2.3858s0.24889-1.9856 0.30701-3.0809" fill="none" stroke-width="1.3229"/>
  <rect transform="matrix(.20085 .13564 .13564 -.20085 446.51 399.19)" x="-1620.9" y="376.02" width="13.041" height="53.589" ry="0" clip-path="url(#clipPath3490-7)" fill="url(#pattern4264-8)" stroke-linecap="round" stroke-linejoin="round" stroke-width=".77603"/>
 </g>
 <g transform="rotate(.56989 204.39 303.83)" fill="#f00" stroke="#fff" stroke-linecap="round" stroke-width=".86722">
  <path transform="matrix(-.081834 .16155 .48963 .24803 -381.69 -523.42)" d="m1695.9 1398.5h-24.481l12.241-21.201z" clip-path="url(#clipPath3494-9)"/>
  <path transform="matrix(.01155 -.18072 -.54775 -.03501 879.34 482.51)" d="m1695.9 1398.5h-24.481l12.241-21.201z" clip-path="url(#clipPath3494-9-5)"/>
  <path transform="matrix(.086739 .15897 .48181 -.26289 -687.35 103.24)" d="m1695.9 1398.5h-24.481l12.241-21.201z" clip-path="url(#clipPath3494-9-5-2)"/>
 </g>
 <g transform="rotate(.56989 204.39 303.83)" fill="#fff" stroke="#000">
  <g stroke-width=".28122">
   <path d="m131.3 65.73a1.1465 1.1395 0 0 1-1.1901 1.0943 1.1465 1.1395 0 0 1-1.1011-1.1828 1.1465 1.1395 0 0 1 1.19-1.0945 1.1465 1.1395 0 0 1 1.1013 1.1826"/>
   <path d="m144 52.613a1.1465 1.1395 0 0 1-1.1901 1.0943 1.1465 1.1395 0 0 1-1.1011-1.1828 1.1465 1.1395 0 0 1 1.19-1.0945 1.1465 1.1395 0 0 1 1.1013 1.1826"/>
   <path d="m147.45 30.159a1.1465 1.1395 0 0 1-1.1901 1.0943 1.1465 1.1395 0 0 1-1.1011-1.1828 1.1465 1.1395 0 0 1 1.19-1.0945 1.1465 1.1395 0 0 1 1.1013 1.1826"/>
   <path d="m253.69 48.603a1.1465 1.1395 0 0 1-1.1901 1.0943 1.1465 1.1395 0 0 1-1.1011-1.1828 1.1465 1.1395 0 0 1 1.19-1.0945 1.1465 1.1395 0 0 1 1.1013 1.1826"/>
   <path d="m283.34 36.515a1.1465 1.1395 0 0 1-1.1901 1.0943 1.1465 1.1395 0 0 1-1.1011-1.1828 1.1465 1.1395 0 0 1 1.19-1.0945 1.1465 1.1395 0 0 1 1.1013 1.1826"/>
   <path d="m313.91 49.94a1.1465 1.1395 0 0 1-1.1901 1.0943 1.1465 1.1395 0 0 1-1.1011-1.1828 1.1465 1.1395 0 0 1 1.19-1.0945 1.1465 1.1395 0 0 1 1.1013 1.1826"/>
   <path d="m337.74 33.583a1.1465 1.1395 0 0 1-1.1901 1.0943 1.1465 1.1395 0 0 1-1.1011-1.1828 1.1465 1.1395 0 0 1 1.19-1.0945 1.1465 1.1395 0 0 1 1.1013 1.1826"/>
   <path d="m327.72 18.317a1.1465 1.1395 0 0 1-1.1901 1.0943 1.1465 1.1395 0 0 1-1.1011-1.1828 1.1465 1.1395 0 0 1 1.19-1.0945 1.1465 1.1395 0 0 1 1.1013 1.1826"/>
   <path d="m214.24 18.906a1.1465 1.1395 0 0 1-1.1901 1.0943 1.1465 1.1395 0 0 1-1.1011-1.1828 1.1465 1.1395 0 0 1 1.19-1.0945 1.1465 1.1395 0 0 1 1.1013 1.1826"/>
   <path d="m165.9 6.7619a1.1465 1.1395 0 0 1-1.1901 1.0943 1.1465 1.1395 0 0 1-1.1011-1.1828 1.1465 1.1395 0 0 1 1.19-1.0945 1.1465 1.1395 0 0 1 1.1013 1.1826"/>
   <path d="m26.848 59.875a1.1465 1.1395 0 0 1-1.1901 1.0943 1.1465 1.1395 0 0 1-1.1011-1.1828 1.1465 1.1395 0 0 1 1.19-1.0945 1.1465 1.1395 0 0 1 1.1013 1.1826"/>
   <path d="m43.119 77.204a1.1465 1.1395 0 0 1-1.1901 1.0943 1.1465 1.1395 0 0 1-1.1011-1.1828 1.1465 1.1395 0 0 1 1.19-1.0945 1.1465 1.1395 0 0 1 1.1013 1.1826"/>
   <path d="m20.009 89.054a1.1465 1.1395 0 0 1-1.1901 1.0943 1.1465 1.1395 0 0 1-1.1011-1.1828 1.1465 1.1395 0 0 1 1.19-1.0945 1.1465 1.1395 0 0 1 1.1013 1.1826"/>
   <path d="m10.872 102.61a1.1465 1.1395 0 0 1-1.1901 1.0943 1.1465 1.1395 0 0 1-1.1011-1.1828 1.1465 1.1395 0 0 1 1.19-1.0945 1.1465 1.1395 0 0 1 1.1013 1.1826"/>
   <path d="m14.764 106.09a1.1465 1.1395 0 0 1-1.1901 1.0943 1.1465 1.1395 0 0 1-1.1011-1.1828 1.1465 1.1395 0 0 1 1.19-1.0944 1.1465 1.1395 0 0 1 1.1013 1.1826"/>
   <path d="m13.88 125.54a1.1465 1.1395 0 0 1-1.1901 1.0943 1.1465 1.1395 0 0 1-1.1011-1.1828 1.1465 1.1395 0 0 1 1.19-1.0944 1.1465 1.1395 0 0 1 1.1013 1.1826"/>
   <path d="m303.02 120.3a1.1465 1.1395 0 0 1-1.1901 1.0943 1.1465 1.1395 0 0 1-1.1011-1.1828 1.1465 1.1395 0 0 1 1.19-1.0944 1.1465 1.1395 0 0 1 1.1013 1.1826"/>
   <path d="m278.49 104.97a1.1465 1.1395 0 0 1-1.1901 1.0943 1.1465 1.1395 0 0 1-1.1011-1.1828 1.1465 1.1395 0 0 1 1.19-1.0944 1.1465 1.1395 0 0 1 1.1013 1.1826"/>
   <path d="m232.81 119.23a1.1465 1.1395 0 0 1-1.1901 1.0943 1.1465 1.1395 0 0 1-1.1011-1.1828 1.1465 1.1395 0 0 1 1.19-1.0944 1.1465 1.1395 0 0 1 1.1013 1.1826"/>
  </g>
  <circle cx="121.43" cy="66.02" r="4.1689" stroke-width=".41689"/>
 </g>
 <g transform="rotate(.56989 204.39 303.83)" aria-label="1">
  <path d="m122.98 68.673h-2.9862v-0.56315h1.1485v-3.6975h-1.1485v-0.50387q0.23341 0 0.50017-0.03705 0.26675-0.04075 0.40384-0.11485 0.17043-0.09262 0.26675-0.23341 0.10004-0.14449 0.11486-0.38532h0.57427v4.972h1.1263z" stroke-width=".18969"/>
 </g>
 <circle transform="rotate(.56989)" cx="153.77" cy="50.267" r="4.1689" fill="#fff" stroke="#000" stroke-width=".41689"/>
 <g transform="rotate(.56989 204.39 303.83)" aria-label="2">
  <path d="m152.62 54.968h-3.7346v-0.77434q0.38902-0.33345 0.77803-0.66689 0.39273-0.33345 0.72988-0.66319 0.71135-0.68912 0.9744-1.093 0.26305-0.40754 0.26305-0.87807 0-0.42977-0.28528-0.6706-0.28157-0.24453-0.78915-0.24453-0.33715 0-0.72988 0.11856-0.39272 0.11856-0.76692 0.36308h-0.037v-0.77804q0.26305-0.12967 0.70023-0.23712 0.44089-0.10744 0.85214-0.10744 0.84844 0 1.3301 0.41125 0.48164 0.40754 0.48164 1.1078 0 0.31492-0.0815 0.58909-0.0778 0.27046-0.23342 0.51499-0.14449 0.22971-0.34085 0.452-0.19266 0.2223-0.47053 0.49276-0.39643 0.38902-0.8188 0.75581-0.42236 0.36308-0.78915 0.6743h2.9677z" stroke-width=".18969"/>
 </g>
 <circle transform="rotate(.56989)" cx="142.44" cy="24.107" r="4.1689" fill="#fff" stroke="#000" stroke-width=".41689"/>
 <g transform="rotate(.56989 204.39 303.83)" aria-label="3">
  <path d="m140.81 26.151q0.17783 0.15931 0.29269 0.40014 0.11485 0.24082 0.11485 0.62243 0 0.3779-0.13708 0.69283t-0.38532 0.54833q-0.27787 0.25935-0.65577 0.38531-0.3742 0.12226-0.8225 0.12226-0.45942 0-0.90401-0.11115-0.44459-0.10744-0.72988-0.23712v-0.77433h0.0556q0.31492 0.20748 0.74099 0.34456t0.8225 0.13708q0.23341 0 0.49646-0.0778t0.42607-0.22971q0.17043-0.16302 0.25194-0.35938 0.0852-0.19636 0.0852-0.49646 0-0.2964-0.0963-0.48905-0.0926-0.19636-0.25934-0.30751-0.16673-0.11485-0.40384-0.15561-0.23712-0.04446-0.51129-0.04446h-0.33344v-0.61502h0.25934q0.56316 0 0.8966-0.23341 0.33715-0.23712 0.33715-0.68912 0-0.20007-0.0852-0.34826-0.0852-0.1519-0.23712-0.24823-0.15931-0.09633-0.34085-0.13338-0.18155-0.03705-0.41125-0.03705-0.35197 0-0.7484 0.12597t-0.7484 0.35568h-0.037v-0.77434q0.26305-0.12967 0.70023-0.23712 0.44089-0.11115 0.85214-0.11115 0.40384 0 0.71135 0.0741t0.55575 0.23712q0.26675 0.17784 0.40383 0.42978 0.13709 0.25194 0.13709 0.58909 0 0.45941-0.32604 0.80397-0.32233 0.34086-0.76322 0.42978v0.05187q0.17784 0.02964 0.40755 0.12597 0.2297 0.09262 0.38902 0.23341z" stroke-width=".18969"/>
 </g>
 <circle transform="rotate(.56989)" cx="255.4" cy="54.222" r="4.1689" fill="#fff" stroke="#000" stroke-width=".41689"/>
 <g transform="rotate(.56989 204.39 303.83)" aria-label="4">
  <path d="m254.38 57.37h-0.8188v1.5524h-0.71135v-1.5524h-2.6416v-0.85214l2.6713-3.1122h0.68171v3.3715h0.8188zm-1.5302-0.59279v-2.4897l-2.1378 2.4897z" stroke-width=".18969"/>
 </g>
 <circle transform="rotate(.56989)" cx="285.82" cy="26.712" r="4.1689" fill="#fff" stroke="#000" stroke-width=".41689"/>
 <g transform="rotate(.56989 204.39 303.83)" aria-label="5">
  <path d="m284.63 29.66q0 0.38532-0.14078 0.73728-0.14079 0.35197-0.38532 0.59279-0.26676 0.25935-0.63725 0.40014-0.36679 0.13708-0.85214 0.13708-0.452 0-0.87066-0.09633-0.41866-0.09262-0.70765-0.226v-0.78174h0.0519q0.30381 0.19266 0.71135 0.32974 0.40755 0.13338 0.80027 0.13338 0.26305 0 0.50758-0.0741 0.24823-0.0741 0.44089-0.25935 0.16302-0.15931 0.24452-0.38161 0.0852-0.2223 0.0852-0.51499 0-0.28528-0.10004-0.48164-0.0963-0.19636-0.27046-0.31492-0.19265-0.14079-0.47053-0.19636-0.27416-0.05928-0.61502-0.05928-0.32603 0-0.62984 0.04446-0.3001 0.04446-0.51869 0.08892v-2.8417h3.3196v0.64837h-2.6046v1.4672q0.15932-0.01482 0.32604-0.02223 0.16672-0.0074 0.28899-0.0074 0.44829 0 0.78545 0.0778 0.33715 0.0741 0.61872 0.26676 0.2964 0.20377 0.45942 0.5261 0.16301 0.32233 0.16301 0.80768z" stroke-width=".18969"/>
 </g>
 <circle transform="rotate(.56989)" cx="316.46" cy="54.639" r="4.1689" fill="#fff" stroke="#000" stroke-width=".41689"/>
 <g transform="rotate(.56989 204.39 303.83)" aria-label="6">
  <path d="m315.4 57.55q0 0.84102-0.55574 1.3745-0.55204 0.52981-1.356 0.52981-0.40754 0-0.74099-0.12597-0.33344-0.12597-0.58908-0.3742-0.31863-0.30751-0.49276-0.81509-0.17043-0.50758-0.17043-1.2226 0-0.73358 0.15561-1.3004 0.15931-0.56686 0.50387-1.0077 0.32604-0.41866 0.84102-0.65207 0.51499-0.23712 1.2004-0.23712 0.21859 0 0.36679 0.01852t0.3001 0.06669v0.70764h-0.0371q-0.10374-0.05557-0.31492-0.10374-0.20748-0.05187-0.42607-0.05187-0.79656 0-1.2708 0.50017-0.47423 0.49646-0.55204 1.3449 0.31122-0.18895 0.61132-0.28528 0.30381-0.10003 0.70024-0.10003 0.35197 0 0.61872 0.06669 0.27047 0.06298 0.55204 0.25935 0.32604 0.226 0.48905 0.57056 0.16673 0.34456 0.16673 0.83732zm-0.75211 0.02964q0-0.34456-0.10374-0.57056-0.10003-0.226-0.33344-0.39272-0.17043-0.11856-0.37791-0.15561-0.20747-0.03705-0.43348-0.03705-0.31492 0-0.58538 0.0741t-0.55574 0.22971q-7e-3 0.08151-0.0111 0.15931-4e-3 0.0741-4e-3 0.18895 0 0.58538 0.11856 0.92624 0.12226 0.33715 0.33344 0.53351 0.17043 0.16302 0.36679 0.24082 0.20007 0.0741 0.43348 0.0741 0.53722 0 0.84473-0.32604 0.30751-0.32974 0.30751-0.94476z" stroke-width=".18969"/>
 </g>
 <circle transform="rotate(.56989)" cx="331.88" cy="29.629" r="4.1689" fill="#fff" stroke="#000" stroke-width=".41689"/>
 <g transform="rotate(.56989 204.39 303.83)" aria-label="7">
  <path d="m330.75 29.64-2.4971 4.6905h-0.79286l2.6564-4.8683h-3.1418v-0.64837h3.7753z" stroke-width=".18969"/>
 </g>
 <circle transform="rotate(.56989)" cx="328.97" cy="9.2051" r="4.1689" fill="#fff" stroke="#000" stroke-width=".41689"/>
 <g transform="rotate(.56989 204.39 303.83)" aria-label="8">
  <path d="m327.86 12.368q0 0.71506-0.55944 1.1893-0.55575 0.47423-1.4005 0.47423-0.89659 0-1.4301-0.46312-0.52981-0.46312-0.52981-1.1856 0-0.45941 0.26676-0.82991 0.26676-0.3742 0.75211-0.59279v-0.02223q-0.4446-0.23712-0.65949-0.51869-0.21118-0.28158-0.21118-0.70394 0-0.62243 0.51129-1.0374 0.51128-0.41495 1.3004-0.41495 0.82621 0 1.319 0.39643 0.49275 0.39643 0.49275 1.0077 0 0.3742-0.23341 0.73729-0.23341 0.35938-0.68541 0.56315v0.02223q0.51869 0.2223 0.79286 0.54833 0.27416 0.32604 0.27416 0.82991zm-0.87807-2.6935q0-0.39643-0.30751-0.62984-0.30381-0.23712-0.77804-0.23712-0.46683 0-0.76693 0.2223-0.29639 0.2223-0.29639 0.6002 0 0.26676 0.1482 0.46312 0.1519 0.19266 0.4557 0.34456 0.13709 0.06669 0.39273 0.17413 0.25935 0.10744 0.50387 0.17784 0.36679-0.24453 0.50758-0.50758t0.14079-0.60761zm0.11485 2.7639q0-0.34086-0.1519-0.54463-0.1482-0.20748-0.58538-0.41496-0.17414-0.08151-0.38161-0.1519-0.20748-0.07039-0.55204-0.19636-0.33345 0.18154-0.53722 0.49276-0.20007 0.31122-0.20007 0.70394 0 0.50017 0.34457 0.8262 0.34456 0.32604 0.87436 0.32604 0.54093 0 0.86326-0.27787 0.32603-0.27787 0.32603-0.76322z" stroke-width=".18969"/>
 </g>
 <circle transform="rotate(.56989)" cx="216.5" cy="9.0791" r="4.1689" fill="#fff" stroke="#000" stroke-width=".41689"/>
 <g transform="rotate(.56989 204.39 303.83)" aria-label="9">
  <path d="m215.2 10.689q0 0.72247-0.16673 1.3116-0.16302 0.58909-0.49646 1.004-0.33715 0.42236-0.84473 0.65207t-1.193 0.22971q-0.19266 0-0.36309-0.02223-0.17043-0.01852-0.30381-0.06298v-0.70764h0.037q0.10745 0.05557 0.30381 0.10744 0.19636 0.04817 0.43718 0.04817 0.8188 0 1.2819-0.48905 0.46682-0.49276 0.54092-1.356-0.34456 0.20748-0.64837 0.2964-0.3038 0.08892-0.66318 0.08892-0.34086 0-0.61873-0.06669-0.27417-0.06669-0.55204-0.25935-0.32603-0.226-0.49276-0.57427-0.16301-0.34827-0.16301-0.83361 0-0.84473 0.55574-1.3745t1.356-0.52981q0.40014 0 0.74099 0.12597 0.34086 0.12226 0.5965 0.3705 0.31492 0.30751 0.48535 0.79286 0.17043 0.48164 0.17043 1.2486zm-0.7484-0.15931q0-0.57427-0.11856-0.92253t-0.32604-0.54092q-0.17413-0.16672-0.3742-0.23712-0.20007-0.074099-0.43348-0.074099-0.53351 0-0.84473 0.33345-0.30751 0.33345-0.30751 0.93735 0 0.35197 0.10004 0.57427 0.10003 0.2223 0.33715 0.38902 0.16672 0.11485 0.36679 0.15561 0.20006 0.03705 0.44459 0.03705 0.28899 0 0.58538-0.0778 0.2964-0.0778 0.55575-0.226 4e-3 -0.0778 7e-3 -0.1519 7e-3 -0.0778 7e-3 -0.19636z" stroke-width=".18969"/>
 </g>
 <circle transform="rotate(.56989)" cx="164.63" cy="10.962" r="4.1689" fill="#fff" stroke="#000" stroke-width=".41689"/>
 <g transform="rotate(.56989 204.39 303.83)" stroke-width=".13612" aria-label="10">
  <path d="m161.27 14.637h-2.1428v-0.40411h0.82417v-2.6533h-0.82417v-0.36157q0.16749 0 0.35891-0.02659 0.19142-0.02924 0.28979-0.08242 0.12229-0.06647 0.19142-0.16749 0.0718-0.10369 0.0824-0.2765h0.41209v3.5679h0.80822z"/>
  <path d="m164.95 12.656q0 1.0661-0.33499 1.5659-0.33232 0.49716-1.0342 0.49716-0.71251 0-1.0422-0.50514-0.32701-0.50514-0.32701-1.5526 0-1.0555 0.33232-1.5579 0.33233-0.50514 1.0369-0.50514 0.71251 0 1.0395 0.51311 0.32967 0.51045 0.32967 1.5447zm-0.69922 1.207q0.0931-0.21535 0.12496-0.50514 0.0346-0.29245 0.0346-0.70187 0-0.40411-0.0346-0.70187-0.0319-0.29776-0.12762-0.50514-0.0931-0.20471-0.25522-0.3084-0.15952-0.10369-0.41209-0.10369-0.24991 0-0.41474 0.10369-0.16218 0.10369-0.25789 0.31372-0.0904 0.19674-0.12495 0.51311-0.0319 0.31638-0.0319 0.6939 0 0.41474 0.0293 0.6939 0.0292 0.27915 0.12495 0.49982 0.0877 0.20737 0.24726 0.31638 0.16217 0.109 0.42803 0.109 0.24991 0 0.41475-0.10369 0.16483-0.10369 0.25522-0.31372z"/>
 </g>
 <circle transform="rotate(.56989)" cx="53.031" cy="75.272" r="4.1689" fill="#fff" stroke="#000" stroke-width=".41689"/>
 <g transform="rotate(.56989 204.39 303.83)" stroke-width=".13612" aria-label="12">
  <path d="m49.666 78.946h-2.1428v-0.40411h0.82417v-2.6533h-0.82417v-0.36157q0.16749 0 0.35891-0.02659 0.19142-0.02925 0.28979-0.08242 0.1223-0.06647 0.19142-0.16749 0.07178-0.10369 0.08242-0.2765h0.41208v3.5679h0.80822z"/>
  <path d="m53.354 78.946h-2.6799v-0.55565q0.27915-0.23928 0.55831-0.47855 0.28181-0.23928 0.52375-0.47589 0.51045-0.4945 0.69922-0.78429 0.18876-0.29245 0.18876-0.63009 0-0.3084-0.20471-0.48121-0.20206-0.17547-0.56628-0.17547-0.24193 0-0.52375 0.08508t-0.55033 0.26054h-0.02659v-0.55831q0.18876-0.09305 0.50248-0.17015 0.31638-0.0771 0.61148-0.0771 0.60882 0 0.95444 0.29511 0.34562 0.29245 0.34562 0.79492 0 0.22598-0.05849 0.42272-0.05583 0.19408-0.16749 0.36955-0.10369 0.16483-0.24459 0.32435-0.13825 0.15952-0.33764 0.3536-0.28447 0.27916-0.58755 0.54236-0.30308 0.26054-0.56628 0.48387h2.1295z"/>
 </g>
 <circle transform="rotate(.56989)" cx="16.35" cy="81.732" r="4.1689" fill="#fff" stroke="#000" stroke-width=".41689"/>
 <g transform="rotate(.56989 204.39 303.83)" stroke-width=".13612" aria-label="13">
  <path d="m12.986 85.407h-2.1428v-0.40411h0.82417v-2.6533h-0.82417v-0.36157q0.16749 0 0.35891-0.02659 0.19142-0.02925 0.28979-0.08242 0.1223-0.06646 0.19142-0.16749 0.07178-0.10368 0.08242-0.2765h0.41208v3.5679h0.80822z"/>
  <path d="m16.325 83.501q0.12761 0.11432 0.21003 0.28713t0.08242 0.44665q0 0.27118-0.09837 0.49716t-0.2765 0.39348q-0.1994 0.1861-0.47058 0.2765-0.26852 0.08773-0.59021 0.08773-0.32967 0-0.6487-0.07976-0.31903-0.0771-0.52375-0.17015v-0.55565h0.03988q0.22598 0.14888 0.53172 0.24725t0.59021 0.09837q0.16749 0 0.35625-0.05583t0.30574-0.16483q0.1223-0.11698 0.18079-0.25789 0.06115-0.14091 0.06115-0.35625 0-0.21269-0.06912-0.35094-0.06647-0.14091-0.1861-0.22066-0.11964-0.08242-0.28979-0.11166-0.17015-0.0319-0.36689-0.0319h-0.23928v-0.44133h0.1861q0.40411 0 0.64338-0.16749 0.24193-0.17015 0.24193-0.4945 0-0.14356-0.06115-0.24991-0.06115-0.109-0.17015-0.17813-0.11432-0.06912-0.24459-0.09571t-0.29511-0.02659q-0.25257 0-0.53704 0.09039t-0.53704 0.25523h-0.02659v-0.55565q0.18876-0.09305 0.50248-0.17015 0.31638-0.07976 0.61148-0.07976 0.28979 0 0.51045 0.05317t0.39879 0.17015q0.19142 0.12761 0.28979 0.3084t0.09837 0.42272q0 0.32967-0.23396 0.57692-0.2313 0.24459-0.54767 0.3084v0.03722q0.12761 0.02127 0.29245 0.09039 0.16483 0.06647 0.27916 0.16749z"/>
 </g>
 <circle transform="rotate(.56989)" cx="8.0138" cy="94.029" r="4.1689" fill="#fff" stroke="#000" stroke-width=".41689"/>
 <g transform="rotate(.56989 204.39 303.83)" stroke-width=".13612" aria-label="14">
  <path d="m4.6493 97.703h-2.1428v-0.40411h0.82417v-2.6533h-0.82417v-0.36157q0.16749 0 0.35891-0.02659 0.19142-0.02925 0.28979-0.08242 0.1223-0.06647 0.19142-0.16749 0.071783-0.10369 0.082417-0.2765h0.41209v3.5679h0.80822z"/>
  <path d="m8.4272 96.589h-0.58755v1.114h-0.51045v-1.114h-1.8956v-0.61148l1.9169-2.2332h0.48918v2.4193h0.58755zm-1.098-0.42538v-1.7866l-1.534 1.7866z"/>
 </g>
 <circle transform="rotate(.56989)" cx="23.02" cy="101.11" r="4.1689" fill="#fff" stroke="#000" stroke-width=".41689"/>
 <g transform="rotate(.56989 204.39 303.83)" stroke-width=".13612" aria-label="15">
  <path d="m19.655 104.79h-2.1428v-0.40411h0.82417v-2.6533h-0.82417v-0.36157q0.16749 0 0.35891-0.0266 0.19142-0.0292 0.28979-0.0824 0.1223-0.0665 0.19142-0.16749 0.07178-0.10369 0.08242-0.2765h0.41208v3.5679h0.80822z"/>
  <path d="m23.311 103.53q0 0.27649-0.10103 0.52906t-0.2765 0.42538q-0.19142 0.1861-0.45728 0.28713-0.2632 0.0984-0.61148 0.0984-0.32435 0-0.62477-0.0691-0.30042-0.0665-0.5078-0.16218v-0.56097h0.03722q0.21801 0.13825 0.51045 0.23662 0.29245 0.0957 0.57426 0.0957 0.18876 0 0.36423-0.0532 0.17813-0.0532 0.31638-0.18611 0.11698-0.11432 0.17547-0.27383 0.06115-0.15952 0.06115-0.36955 0-0.20471-0.07178-0.34562-0.06912-0.14091-0.19408-0.22598-0.13825-0.10103-0.33764-0.14091-0.19674-0.0425-0.44133-0.0425-0.23396 0-0.45196 0.0319-0.21535 0.0319-0.37221 0.0638v-2.0392h2.3821v0.46526h-1.869v1.0528q0.11432-0.0106 0.23396-0.016 0.11964-5e-3 0.20737-5e-3 0.32169 0 0.56363 0.0558 0.24193 0.0532 0.44399 0.19142 0.21269 0.14622 0.32967 0.37752t0.11698 0.57958z"/>
 </g>
 <circle transform="rotate(.56989)" cx="21.977" cy="117.37" r="4.1689" fill="#fff" stroke="#000" stroke-width=".41689"/>
 <g transform="rotate(.56989 204.39 303.83)" stroke-width=".13612" aria-label="16">
  <path d="m18.613 121.05h-2.1428v-0.40411h0.82417v-2.6533h-0.82417v-0.36157q0.16749 0 0.35891-0.0266 0.19142-0.0293 0.28979-0.0824 0.1223-0.0665 0.19142-0.16749 0.07178-0.10369 0.08242-0.2765h0.41208v3.5679h0.80822z"/>
  <path d="m22.359 119.76q0 0.60351-0.39879 0.98635-0.39613 0.38018-0.97305 0.38018-0.29245 0-0.53172-0.0904-0.23928-0.0904-0.42272-0.26852-0.22864-0.22067-0.3536-0.5849-0.1223-0.36423-0.1223-0.87734 0-0.52641 0.11166-0.93317 0.11432-0.40677 0.36157-0.72315 0.23396-0.30042 0.6035-0.46791 0.36955-0.17015 0.86139-0.17015 0.15686 0 0.2632 0.0133t0.21535 0.0479v0.5078h-0.02659q-0.07444-0.0399-0.22598-0.0744-0.14888-0.0372-0.30574-0.0372-0.5716 0-0.9119 0.35891-0.3403 0.35625-0.39613 0.96508 0.22332-0.13559 0.43867-0.20472 0.21801-0.0718 0.50248-0.0718 0.25257 0 0.44399 0.0479 0.19408 0.0452 0.39613 0.1861 0.23396 0.16217 0.35094 0.40942 0.11964 0.24726 0.11964 0.60085zm-0.5397 0.0213q0-0.24725-0.07444-0.40943-0.07178-0.16217-0.23928-0.28181-0.1223-0.0851-0.27118-0.11166-0.14888-0.0266-0.31106-0.0266-0.22598 0-0.42006 0.0532t-0.39879 0.16483q-0.0053 0.0585-8e-3 0.11432-0.0027 0.0532-0.0027 0.13559 0 0.42006 0.08508 0.66465 0.08773 0.24194 0.23928 0.38284 0.1223 0.11698 0.2632 0.17281 0.14356 0.0532 0.31106 0.0532 0.3855 0 0.60616-0.23395 0.22066-0.23662 0.22066-0.67795z"/>
 </g>
 <circle transform="rotate(.56989)" cx="312.49" cy="119.38" r="4.1689" fill="#fff" stroke="#000" stroke-width=".41689"/>
 <text transform="rotate(.56989)" x="309.25308" y="121.00999" fill="#000000" font-family="sans-serif" font-size="5.4448px" stroke-width=".13612" style="line-height:1.25" xml:space="preserve"><tspan x="309.25308" y="121.00999" stroke-width=".13612">17</tspan></text>
 <circle transform="rotate(.56989)" cx="280.95" cy="96.394" r="4.1689" fill="#fff" stroke="#000" stroke-width=".41689"/>
 <text transform="rotate(.56989)" x="277.71606" y="98.020386" fill="#000000" font-family="sans-serif" font-size="5.4448px" stroke-width=".13612" style="line-height:1.25" xml:space="preserve"><tspan x="277.71606" y="98.020386" stroke-width=".13612">18</tspan></text>
 <circle transform="rotate(.56989)" cx="234.67" cy="109.95" r="4.1689" fill="#fff" stroke="#000" stroke-width=".41689"/>
 <g transform="rotate(.56989 204.39 303.83)" stroke-width=".13612" aria-label="19">
  <path d="m231.31 113.63h-2.1428v-0.40411h0.82417v-2.6533h-0.82417v-0.36157q0.1675 0 0.35892-0.0266 0.19142-0.0292 0.28979-0.0824 0.12229-0.0665 0.19142-0.1675 0.0718-0.10368 0.0824-0.27649h0.41209v3.5679h0.80822z"/>
  <path d="m234.99 111.41q0 0.51843-0.11964 0.94115-0.11698 0.42272-0.35626 0.72049-0.24193 0.30308-0.60616 0.46791-0.36423 0.16484-0.85607 0.16484-0.13825 0-0.26055-0.016-0.12229-0.0133-0.218-0.0452v-0.5078h0.0266q0.0771 0.0399 0.21801 0.0771 0.1409 0.0346 0.31371 0.0346 0.58756 0 0.91988-0.35093 0.33499-0.3536 0.38816-0.97305-0.24725 0.14888-0.46526 0.21268-0.218 0.0638-0.47589 0.0638-0.24459 0-0.44399-0.0478-0.19673-0.0479-0.39613-0.18611-0.23396-0.16217-0.35359-0.41208-0.11698-0.24991-0.11698-0.59819 0-0.60616 0.39879-0.98635 0.39879-0.38018 0.97305-0.38018 0.28713 0 0.53172 0.0904 0.2446 0.0877 0.42804 0.26586 0.22598 0.22066 0.34828 0.56894 0.1223 0.34562 0.1223 0.89595zm-0.53704-0.11432q0-0.41208-0.0851-0.66199t-0.23396-0.38816q-0.12495-0.11964-0.26852-0.17015-0.14356-0.0532-0.31106-0.0532-0.38284 0-0.60616 0.23927-0.22066 0.23928-0.22066 0.67263 0 0.25257 0.0718 0.41209 0.0718 0.15951 0.24193 0.27915 0.11964 0.0824 0.2632 0.11166 0.14357 0.0266 0.31904 0.0266 0.20737 0 0.42006-0.0558t0.39879-0.16218q3e-3 -0.0558 5e-3 -0.109 5e-3 -0.0558 5e-3 -0.14091z"/>
 </g>
</svg>
